<?xml version="1.0" encoding="UTF-8"?>
<svg version="1.1" xmlns="http://www.w3.org/2000/svg" width="180" height="180">
<path d="M0 0 C28.05 0 56.1 0 85 0 C83.39481799 4.01295501 82.17353341 6.43356787 79.625 9.75 C79.03976563 10.52859375 78.45453125 11.3071875 77.8515625 12.109375 C75.42349123 14.5886714 73.44705285 14.91128984 70.03839111 15.12025452 C69.01246857 15.1169236 69.01246857 15.1169236 67.96582031 15.11352539 C66.79505951 15.11341209 66.79505951 15.11341209 65.60064697 15.11329651 C64.76821472 15.10813522 63.93578247 15.10297394 63.078125 15.09765625 C62.21813904 15.0962413 61.35815308 15.09482635 60.47210693 15.09336853 C57.73136891 15.08778097 54.99071324 15.07523075 52.25 15.0625 C50.3893241 15.05748339 48.52864691 15.05292077 46.66796875 15.04882812 C42.11194754 15.03781561 37.55598772 15.02055951 33 15 C32.80422363 16.13091064 32.80422363 16.13091064 32.60449219 17.28466797 C28.1864964 42.69781536 28.1864964 42.69781536 25.38427734 54.65673828 C23.94259272 60.93447222 22.93803095 67.25852735 22.03857422 73.63500977 C21.4095328 77.96564586 20.45240688 81.8536126 19 86 C17.88513947 91.15034162 17.29557316 94.70855079 19.875 99.4375 C20.57625 100.283125 21.2775 101.12875 22 102 C22.33 102.99 22.66 103.98 23 105 C26.96 105 30.92 105 35 105 C35.103125 103.824375 35.20625 102.64875 35.3125 101.4375 C35.91726495 96.01981398 37.00553744 90.73365235 38.109375 85.3984375 C38.78394894 82.11866512 39.40898775 78.83207266 40.015625 75.5390625 C40.18924561 74.6015918 40.36286621 73.66412109 40.54174805 72.69824219 C40.88302098 70.84804048 41.22056093 68.99714544 41.55395508 67.14550781 C43.58206279 56.22603593 43.58206279 56.22603593 47.078125 53.203125 C51.05129947 51.56711198 54.5005618 51.63534399 58.75 51.75 C59.91982422 51.75773437 59.91982422 51.75773437 61.11328125 51.765625 C66.84537588 51.84537588 66.84537588 51.84537588 68 53 C67.56156668 59.46689144 66.25342462 65.61215661 64.84814453 71.93017578 C63.99152028 75.9242446 63.32842758 79.94315687 62.6875 83.9765625 C61.00294726 94.30873512 59.00618657 104.5759501 56.98339844 114.84643555 C56.36568102 117.98484654 55.7529206 121.12419906 55.140625 124.26367188 C54.74768413 126.2682857 54.35446569 128.27284514 53.9609375 130.27734375 C53.68750015 131.67870827 53.68750015 131.67870827 53.40853882 133.10838318 C53.23811066 133.97101273 53.0676825 134.83364227 52.89208984 135.72241211 C52.74347504 136.47864365 52.59486023 137.23487518 52.44174194 138.01402283 C52 140 52 140 51 143 C47.23517848 141.51889439 45.66563295 139.51225319 43.4375 136.1875 C42.85871094 135.33542969 42.27992187 134.48335937 41.68359375 133.60546875 C40.55831842 131.86403339 39.46694906 130.10023097 38.41015625 128.31640625 C36.15980024 124.61983807 34.1324027 122.37746757 30 121 C28.37033527 120.90935572 26.73762709 120.86846696 25.10546875 120.859375 C23.67170898 120.83037109 23.67170898 120.83037109 22.20898438 120.80078125 C20.20658003 120.7671274 18.20385729 120.74871335 16.20117188 120.74609375 C7.99891738 120.53676825 7.99891738 120.53676825 4.5390625 117.7734375 C-1.22687491 111.47525971 -5.92322072 105.07092443 -6.21484375 96.296875 C-5.65056002 87.63768474 -4.3943637 78.81883548 -1.98046875 70.4765625 C-0.82558961 66.38157272 -0.22258448 62.33022412 0.375 58.125 C1.36784461 51.57929434 2.49369423 45.08727548 3.9375 38.625 C4.08300293 37.93035645 4.22850586 37.23571289 4.37841797 36.52001953 C5.39979285 32.13513287 6.68006383 29.08321028 10 26 C13.25 25.1875 13.25 25.1875 16 25 C14.27164846 22.47860449 12.54234179 19.95787282 10.8125 17.4375 C10.32974609 16.73302734 9.84699219 16.02855469 9.34960938 15.30273438 C8.86943359 14.60341797 8.38925781 13.90410156 7.89453125 13.18359375 C7.41580566 12.4860498 6.93708008 11.78850586 6.44384766 11.06982422 C5.03854048 9.05524961 3.59139297 7.07673155 2.13671875 5.09765625 C0 2 0 2 0 0 Z " fill="#FF560C" transform="translate(81,26)"/>
<path d="M0 0 C11.22 0 22.44 0 34 0 C34 6.39606344 33.74050865 11.2951346 32.3125 17.3125 C30.46939703 25.52549373 28.94090118 33.76995533 27.5 42.0625 C26.12038693 49.95903196 24.68311719 57.81470651 22.875 65.625 C21.49552802 71.62191948 20.25488806 77.62657061 19.1875 83.6875 C18.98326416 84.78408936 18.98326416 84.78408936 18.77490234 85.90283203 C17.79482037 91.69349422 17.7250154 96.5394453 20.50390625 101.90234375 C24.15161161 104.96778628 27.31285307 104.63307694 31.9375 104.5625 C40.12761105 104.47656663 40.12761105 104.47656663 44.06640625 106.83984375 C46 109 46 109 46 112 C46.66 112 47.32 112 48 112 C50.74375671 114.95481492 51 115.77471908 51 120 C45.02277289 120.17380102 39.04703444 120.30042298 33.06787109 120.38452148 C31.03668581 120.41959766 29.00567567 120.46727355 26.97509766 120.52807617 C24.04545805 120.6135659 21.11816474 120.65281564 18.1875 120.68359375 C17.28821777 120.71972275 16.38893555 120.75585175 15.46240234 120.79307556 C9.24942108 120.79689394 6.14223938 119.22446178 1.67871094 114.92225647 C-5.75077916 106.41490413 -6.50180502 99.08619347 -6 88 C-5.45960042 83.48288085 -4.63119837 79.05244245 -3.734375 74.59375 C-3.4997052 73.38481079 -3.2650354 72.17587158 -3.02325439 70.93029785 C-2.52868619 68.40146876 -2.02753903 65.87391797 -1.52001953 63.34765625 C-0.74708535 59.48543601 -0.0031889 55.61836966 0.73828125 51.75 C1.22484028 49.28091 1.7130628 46.81214709 2.203125 44.34375 C2.53307465 42.61868225 2.53307465 42.61868225 2.86968994 40.85876465 C4.05199275 35.07686105 5.06360368 30.49169922 9 26 C12.25 24.625 12.25 24.625 15 24 C14.61666504 23.47043701 14.23333008 22.94087402 13.83837891 22.39526367 C12.10001013 19.99309186 10.36249607 17.59030311 8.625 15.1875 C8.02171875 14.35412109 7.4184375 13.52074219 6.796875 12.66210938 C6.21679688 11.85966797 5.63671875 11.05722656 5.0390625 10.23046875 C4.50490723 9.49207764 3.97075195 8.75368652 3.42041016 7.99291992 C0 3.19388106 0 3.19388106 0 0 Z " fill="#FF560B" transform="translate(18,26)"/>
<path d="M0 0 C0.99 0.66 1.98 1.32 3 2 C3 3.32 3 4.64 3 6 C-10.2 6 -23.4 6 -37 6 C-36.67 5.34 -36.34 4.68 -36 4 C-23.79 4 -11.58 4 1 4 C0.505 2.02 0.505 2.02 0 0 Z " fill="#FF773E" transform="translate(66,140)"/>
<path d="M0 0 C11.22 0 22.44 0 34 0 C33.67 0.99 33.34 1.98 33 3 C22.77 2.67 12.54 2.34 2 2 C1.67 2.66 1.34 3.32 1 4 C0.67 2.68 0.34 1.36 0 0 Z " fill="#FF6420" transform="translate(18,26)"/>
<path d="M0 0 C6.27 0 12.54 0 19 0 C19 0.66 19 1.32 19 2 C19.61875 2.2475 20.2375 2.495 20.875 2.75 C23.35068687 4.20628639 23.95125002 5.37812506 25 8 C22 7 22 7 20 4 C17.34081834 3.11360611 15.51935359 2.82010975 12.76953125 2.68359375 C11.56586914 2.62075195 11.56586914 2.62075195 10.33789062 2.55664062 C9.50451172 2.51732422 8.67113281 2.47800781 7.8125 2.4375 C6.96751953 2.39431641 6.12253906 2.35113281 5.25195312 2.30664062 C3.16815567 2.20068482 1.08409897 2.0998498 -1 2 C-0.67 1.34 -0.34 0.68 0 0 Z " fill="#FF7843" transform="translate(94,144)"/>
</svg>
